<svg width="21" height="20" viewBox="0 0 21 20" fill="none" xmlns="http://www.w3.org/2000/svg">
<path d="M8 12.5C8 10.143 8 8.96447 8.73223 8.23223C9.46447 7.5 10.643 7.5 13 7.5L13.8333 7.5C16.1904 7.5 17.3689 7.5 18.1011 8.23223C18.8333 8.96447 18.8333 10.143 18.8333 12.5V13.3333C18.8333 15.6904 18.8333 16.8689 18.1011 17.6011C17.3689 18.3333 16.1904 18.3333 13.8333 18.3333H13C10.643 18.3333 9.46447 18.3333 8.73223 17.6011C8 16.8689 8 15.6904 8 13.3333L8 12.5Z" stroke="#596774" stroke-width="1.5" stroke-linecap="round" stroke-linejoin="round"/>
<path opacity="0.4" d="M14.6666 7.50002C14.6646 5.03578 14.6273 3.75936 13.9101 2.88538C13.7715 2.7166 13.6168 2.56183 13.448 2.42332C12.526 1.66669 11.1563 1.66669 8.41669 1.66669C5.67712 1.66669 4.30734 1.66669 3.38538 2.42332C3.2166 2.56183 3.06183 2.7166 2.92332 2.88538C2.16669 3.80733 2.16669 5.17712 2.16669 7.91669C2.16669 10.6563 2.16669 12.026 2.92332 12.948C3.06183 13.1168 3.2166 13.2715 3.38538 13.4101C4.25936 14.1273 5.53578 14.1646 8.00002 14.1666" stroke="#596774" stroke-width="1.5" stroke-linecap="round" stroke-linejoin="round"/>
</svg>
